<?xml version="1.0"?>
<svg xmlns="http://www.w3.org/2000/svg" width="1254" height="1254" viewBox="0 0 1254 1254" role="img" aria-label="Logomarca vetorizada">
  <g fill="#FFFFFF">
    <path d="M 429 171 L 427 174 L 427 470 L 428 472 L 430 473 L 454 474 L 455 475 L 479 477 L 480 478 L 485 478 L 486 479 L 490 479 L 491 480 L 495 480 L 496 481 L 500 481 L 501 482 L 505 482 L 506 483 L 510 483 L 511 484 L 526 487 L 567 501 L 572 504 L 581 507 L 615 525 L 618 525 L 619 522 L 618 521 L 618 228 L 617 226 L 612 221 L 601 214 L 576 201 L 574 201 L 557 193 L 546 190 L 543 188 L 534 186 L 527 183 L 524 183 L 517 180 L 505 178 L 500 176 L 496 176 L 495 175 L 491 175 L 490 174 L 472 172 L 471 171 L 464 171 L 463 170 L 439 169 L 438 170 L 431 170 Z"></path>
    <path d="M 824 171 L 822 170 L 799 170 L 798 171 L 791 171 L 790 172 L 782 172 L 781 173 L 769 174 L 768 175 L 754 177 L 749 179 L 740 180 L 728 184 L 725 184 L 698 193 L 695 195 L 683 199 L 676 203 L 674 203 L 649 216 L 636 225 L 635 227 L 635 525 L 638 525 L 662 512 L 664 512 L 675 506 L 687 502 L 692 499 L 708 494 L 711 492 L 714 492 L 732 486 L 735 486 L 752 481 L 756 481 L 757 480 L 761 480 L 767 478 L 772 478 L 773 477 L 779 477 L 780 476 L 786 476 L 787 475 L 797 475 L 798 474 L 823 473 L 825 472 L 826 470 L 826 174 Z"></path>
    <path d="M 409 494 L 406 493 L 403 494 L 378 509 L 371 512 L 337 533 L 332 535 L 315 546 L 300 554 L 295 558 L 283 564 L 232 595 L 225 598 L 208 609 L 203 611 L 171 631 L 166 633 L 151 642 L 145 647 L 145 653 L 166 682 L 187 707 L 216 736 L 244 759 L 271 777 L 282 783 L 287 784 L 321 763 L 326 761 L 353 744 L 363 739 L 376 730 L 388 724 L 400 716 L 407 713 L 414 708 L 419 706 L 450 687 L 483 669 L 500 658 L 507 655 L 547 631 L 546 629 L 535 623 L 513 608 L 494 593 L 485 584 L 476 577 L 464 565 L 437 534 L 422 514 Z"></path>
    <path d="M 846 493 L 841 498 L 838 504 L 817 533 L 790 564 L 773 581 L 752 599 L 731 615 L 728 616 L 716 625 L 710 628 L 708 631 L 713 635 L 765 664 L 845 712 L 859 719 L 879 732 L 899 743 L 904 747 L 909 749 L 943 770 L 948 772 L 967 784 L 970 784 L 987 774 L 1009 759 L 1022 749 L 1048 726 L 1060 714 L 1088 681 L 1106 656 L 1109 649 L 1108 646 L 1100 640 L 1075 625 L 1063 619 L 987 573 L 982 571 L 932 541 L 927 539 L 917 532 L 903 525 L 849 493 Z"></path>
    <path d="M 554 645 L 527 660 L 522 664 L 500 676 L 493 681 L 488 683 L 468 696 L 430 717 L 356 762 L 344 768 L 313 787 L 299 794 L 292 800 L 291 802 L 291 814 L 292 815 L 293 837 L 294 838 L 294 844 L 295 845 L 295 851 L 297 857 L 299 875 L 300 876 L 300 880 L 301 881 L 307 908 L 312 922 L 312 925 L 314 928 L 316 936 L 318 939 L 324 957 L 334 978 L 336 980 L 338 985 L 342 989 L 347 989 L 358 983 L 365 978 L 370 976 L 382 968 L 387 966 L 389 964 L 394 962 L 401 957 L 406 955 L 431 940 L 436 936 L 441 934 L 453 926 L 487 907 L 502 897 L 514 891 L 519 887 L 524 885 L 550 869 L 574 856 L 586 848 L 591 846 L 606 836 L 606 830 L 604 828 L 595 810 L 595 808 L 589 797 L 589 795 L 580 775 L 573 754 L 569 737 L 567 733 L 566 725 L 563 715 L 561 700 L 560 699 L 560 695 L 559 694 L 559 689 L 558 688 L 558 681 L 557 680 L 557 673 L 556 672 L 556 662 L 555 661 L 555 646 Z"></path>
    <path d="M 699 645 L 695 690 L 694 691 L 693 702 L 692 703 L 692 707 L 691 708 L 691 712 L 690 713 L 690 717 L 687 726 L 685 738 L 683 742 L 683 745 L 681 749 L 681 752 L 677 762 L 677 765 L 674 774 L 672 777 L 666 794 L 663 799 L 663 801 L 658 810 L 658 812 L 648 830 L 648 836 L 653 840 L 669 848 L 696 865 L 701 867 L 720 879 L 744 892 L 766 906 L 773 909 L 778 913 L 795 922 L 888 978 L 895 981 L 908 989 L 913 988 L 919 979 L 919 977 L 929 957 L 932 947 L 935 942 L 937 934 L 939 931 L 948 903 L 948 899 L 949 898 L 949 895 L 953 882 L 953 878 L 954 877 L 954 872 L 955 871 L 955 866 L 956 865 L 958 850 L 959 849 L 959 842 L 960 841 L 961 816 L 962 815 L 962 800 L 959 796 L 937 785 L 913 770 L 877 750 L 872 746 L 852 735 L 835 724 L 830 722 L 788 696 L 783 694 L 753 675 L 715 654 L 703 646 Z"></path>
  </g>
</svg>