<svg version="1.2" xmlns="http://www.w3.org/2000/svg" viewBox="0 0 1254 1254" width="1254" height="1254">
&#x9;
&#x9;<g>
&#x9;&#x9;<path class="s0" d="m128.05 182.05l-5.05 7.58v747.96l2.53 5.06 5.05 2.52 60.65 2.53 2.52 2.53 60.65 5.05 2.52 2.53h12.64l2.53 2.52h10.1l2.53 2.53h10.11l2.52 2.53h10.11l2.53 2.52h10.11l2.52 2.53h10.11l2.53 2.53 37.9 7.58 103.6 35.37 12.64 7.59 22.74 7.58 85.91 45.48h7.58l2.53-7.58-2.53-2.53v-740.37l-2.52-5.06-12.64-12.63-27.79-17.69-63.17-32.85h-5.06l-42.96-20.21-27.79-7.59-7.58-5.05-22.74-5.05-17.69-7.58h-7.58l-17.69-7.58-30.32-5.06-12.64-5.05h-10.11l-2.52-2.53h-10.11l-2.53-2.53-45.48-5.05-2.53-2.53h-17.69l-2.52-2.52-60.65-2.53-2.52 2.53h-17.69z"></path>
&#x9;&#x9;<path class="s0" d="m1126.17 182.05l-5.05-2.52h-58.12l-2.53 2.52h-17.69l-2.52 2.53h-20.22l-2.52 2.53-30.33 2.52-2.52 2.53-35.38 5.06-12.63 5.05-22.75 2.53-30.32 10.1h-7.58l-68.23 22.75-7.58 5.05-30.32 10.11-17.69 10.1h-5.05l-63.17 32.85-32.85 22.75-2.53 5.05v753.01h7.58l60.65-32.85h5.05l27.8-15.16 30.32-10.11 12.63-7.58 40.43-12.63 7.58-5.06h7.58l45.49-15.16h7.58l42.96-12.63h10.1l2.53-2.53h10.11l15.16-5.05h12.63l2.53-2.53h15.16l2.53-2.53h15.16l2.53-2.52h25.27l2.52-2.53 63.18-2.53 5.05-2.52 2.53-5.06v-747.96z"></path>
&#x9;</g>
</svg>