<?xml version="1.0"?>
<svg xmlns="http://www.w3.org/2000/svg" width="189" height="208" viewBox="0 0 189 208">
  <g fill="#ffffff">
    <path d="M 168 188 L 168 203 L 169 204 L 173 204 L 174 205 L 179 206 L 182 204 L 186 204 L 188 203 L 188 188 L 183 188 L 179 190 L 176 190 L 172 188 Z"></path>
    <path d="M 112 188 L 112 203 L 113 204 L 117 204 L 118 205 L 123 206 L 124 205 L 126 205 L 127 204 L 131 204 L 132 203 L 132 188 L 127 188 L 124 190 L 120 190 L 117 188 Z"></path>
    <path d="M 56 188 L 56 203 L 57 204 L 61 204 L 62 205 L 67 206 L 68 205 L 70 205 L 71 204 L 75 204 L 76 203 L 76 188 L 71 188 L 68 190 L 64 190 L 61 188 Z"></path>
    <path d="M 0 188 L 0 203 L 2 204 L 6 204 L 9 206 L 11 206 L 15 204 L 19 204 L 20 203 L 20 188 L 16 188 L 12 190 L 9 190 L 5 188 Z"></path>
    <path d="M 168 141 L 168 157 L 173 157 L 176 159 L 179 159 L 183 157 L 188 157 L 188 141 L 184 141 L 178 144 L 172 141 Z"></path>
    <path d="M 112 141 L 112 157 L 117 157 L 120 159 L 123 159 L 127 157 L 132 157 L 132 141 L 128 141 L 122 144 L 116 141 Z"></path>
    <path d="M 56 141 L 56 157 L 61 157 L 65 159 L 68 159 L 71 157 L 76 157 L 76 141 L 72 141 L 66 144 L 60 141 Z"></path>
    <path d="M 0 141 L 0 157 L 5 157 L 9 159 L 12 159 L 15 157 L 20 157 L 20 141 L 16 141 L 10 144 L 4 141 Z"></path>
    <path d="M 168 94 L 168 110 L 172 110 L 178 113 L 183 110 L 188 110 L 188 94 L 181 95 L 178 97 L 171 94 Z"></path>
    <path d="M 112 94 L 112 110 L 116 110 L 122 113 L 128 110 L 132 110 L 132 94 L 125 95 L 122 97 L 115 94 Z"></path>
    <path d="M 56 94 L 56 110 L 60 110 L 66 113 L 72 110 L 76 110 L 76 94 L 73 94 L 66 97 L 63 95 Z"></path>
    <path d="M 0 94 L 0 110 L 5 110 L 10 113 L 16 110 L 20 110 L 20 94 L 17 94 L 11 97 L 7 95 Z"></path>
    <path d="M 168 47 L 168 63 L 171 63 L 178 66 L 184 63 L 188 63 L 188 47 L 185 47 L 179 50 L 177 50 L 174 48 Z"></path>
    <path d="M 112 47 L 112 63 L 119 64 L 122 66 L 128 63 L 132 63 L 132 47 L 126 48 L 123 50 L 121 50 L 118 48 Z"></path>
    <path d="M 56 47 L 56 63 L 60 63 L 66 66 L 69 64 L 76 63 L 76 47 L 70 48 L 67 50 L 65 50 L 62 48 Z"></path>
    <path d="M 0 47 L 0 63 L 4 63 L 10 66 L 17 63 L 20 63 L 20 47 L 14 48 L 11 50 L 4 48 L 3 47 Z"></path>
    <path d="M 168 1 L 168 16 L 174 17 L 177 19 L 184 17 L 185 16 L 188 16 L 188 1 L 182 1 L 179 3 L 177 3 L 173 1 Z"></path>
    <path d="M 112 1 L 112 16 L 115 16 L 121 19 L 123 19 L 129 16 L 132 16 L 132 1 L 126 1 L 123 3 L 121 3 L 117 1 Z"></path>
    <path d="M 56 1 L 56 16 L 59 16 L 66 19 L 73 16 L 76 16 L 76 1 L 71 1 L 67 3 L 65 3 L 62 1 Z"></path>
    <path d="M 0 1 L 0 16 L 3 16 L 10 19 L 14 17 L 20 16 L 20 1 L 15 1 L 11 3 L 9 3 L 6 1 Z"></path>
  </g>
</svg>